<svg id="css3" 
    height="2048" viewBox="0 0 2048 2048" width="2048" 
    xmlns="http://www.w3.org/2000/svg" 
    shape-rendering="geometricPrecision" text-rendering="geometricPrecision" image-rendering="optimizeQuality" fill-rule="evenodd" clip-rule="evenodd">
    <defs><style>.fil4{fill:none}.fil0{fill:#1572b6}.fil1{fill:#35a8db}.fil2{fill:#e9e9e8}.fil3{fill:#fffffe}</style></defs><g id="Layer_x0020_1"><g id="_337846024"><path class="fil0" id="_337847128" d="M1582.48 1627.13L1703.3 273.75l1.58-17.75H343.118l1.58 17.75 120.69 1353.6 1.006 11.29 10.872 3.01L1018.85 1792h8.69l543.06-150.57 10.87-3.01z"/><path class="fil1" id="_337847104" d="M1599.93 351.998H1024V1693.36l467.76-129.69z"/><path class="fil2" id="_337846984" d="M1023.36 712.36L617.147 881.536l13.474 167.493 392.74-167.922 417.77-178.613 17.32-171.34z"/><path class="fil2" id="_337846144" d="M1023.36 531.162H1458.45l-3.43 33.914-3.43 33.91-3.43 33.912-3.43 33.922-3.43 33.912-.17 1.763H601.735l-.597-4.846-3.43-27.754-3.43-27.744-3.43-27.755-3.428-27.744-3.428-27.745-3.43-27.746H1022.946z"/><path class="fil2" id="_337846384" d="M617.774 881.56h808.596l-14.73 169.4-780.393-1.93z"/><path class="fil2" id="_337846192" d="M643.04 1143.39l176.88.07 11.542 138.51 191.898 47.59 197.01-55.29 13.33-226.51 178.46-2.8-32 367.92L1024 1516.85l-358.725-105.89z"/><g><path class="fil3" id="_337846792" d="M1024 880.833l417.13-178.338 17.32-171.34L1024 712.09z"/><path class="fil3" id="_337846480" d="M1024 531.162H1458.45l-3.43 33.914-3.43 33.91-3.43 33.912-3.43 33.922-3.43 33.912-.17 1.763H1024z"/><path class="fil3" id="_337845784" d="M1024 881.56h402.37l-14.73 169.4L1024 1050z"/><path class="fil3" id="_337845328" d="M1024 1329.38l196.37-55.11 13.33-226.51 178.46-2.8-32 367.92L1024 1516.85v-.01z"/></g></g></g><path class="fil4" d="M0 0h2048v2048H0z"/>
</svg>