<svg id="node" 
    viewBox="0 0 456 284" xmlns="http://www.w3.org/2000/svg" xmlns:xlink="http://www.w3.org/1999/xlink">
    <g fill="#699F63"><path d="M225.953 279.054c-1.46 0-2.912-.38-4.19-1.12l-13.34-7.893c-1.99-1.114-1.017-1.508-.36-1.737 2.656-.922 3.194-1.135 6.03-2.743.295-.166.687-.103.992.076l10.247 6.084c.372.206.896.206 1.237 0l39.95-23.058c.37-.212.61-.64.61-1.08v-46.104c0-.45-.24-.872-.62-1.1l-39.934-23.04a1.25 1.25 0 0 0-1.23 0l-39.924 23.046a1.285 1.285 0 0 0-.634 1.094v46.103c0 .442.245.86.63 1.07l10.944 6.322c5.938 2.97 9.573-.528 9.573-4.04v-45.52c0-.644.518-1.152 1.16-1.152h5.067c.634 0 1.158.508 1.158 1.15v45.52c0 7.926-4.316 12.47-11.83 12.47-2.308 0-4.126 0-9.2-2.5l-10.477-6.03a8.44 8.44 0 0 1-4.19-7.29V201.48c0-2.995 1.602-5.792 4.19-7.28l39.95-23.086c2.528-1.43 5.888-1.43 8.396 0l39.946 23.085a8.434 8.434 0 0 1 4.196 7.28v46.104a8.457 8.457 0 0 1-4.196 7.29l-39.947 23.064a8.384 8.384 0 0 1-4.207 1.12z"/><path d="M238.293 247.292c-17.482 0-21.144-8.024-21.144-14.755 0-.64.513-1.15 1.154-1.15h5.165c.576 0 1.057.414 1.147.978.78 5.258 3.105 7.912 13.677 7.912 8.416 0 12-1.904 12-6.37 0-2.573-1.016-4.484-14.096-5.765-10.93-1.08-17.69-3.496-17.69-12.24 0-8.062 6.793-12.87 18.185-12.87 12.798 0 19.13 4.443 19.933 13.973a1.17 1.17 0 0 1-.305.89c-.218.228-.523.367-.845.367h-5.185a1.15 1.15 0 0 1-1.12-.902c-1.245-5.533-4.27-7.3-12.477-7.3-9.19 0-10.257 3.2-10.257 5.598 0 2.906 1.26 3.752 13.667 5.394 12.277 1.622 18.11 3.92 18.11 12.55-.003 8.704-7.26 13.69-19.92 13.69z"/></g><path d="M295.9 198.94c0 4.237-3.464 7.7-7.7 7.7-4.197 0-7.7-3.422-7.7-7.7 0-4.358 3.587-7.7 7.7-7.7 4.156 0 7.7 3.342 7.7 7.7zm-14.156-.02c0 3.585 2.892 6.478 6.435 6.478 3.585 0 6.478-2.954 6.478-6.48 0-3.583-2.932-6.435-6.48-6.435-3.502 0-6.434 2.81-6.434 6.436zm3.563-4.298h2.976c1.018 0 3.015 0 3.015 2.282 0 1.59-1.018 1.914-1.632 2.118 1.184.082 1.264.856 1.426 1.956.083.692.206 1.874.448 2.28h-1.83c-.044-.405-.33-2.606-.33-2.727-.118-.49-.284-.732-.894-.732h-1.506v3.46h-1.672v-8.636zm1.632 3.788h1.342c1.098 0 1.304-.773 1.304-1.22 0-1.184-.816-1.184-1.264-1.184h-1.383v2.404z" fill="#699F63"/><path d="M102.243 98.677c0-1.84-.97-3.533-2.558-4.445L57.33 69.857a5 5 0 0 0-2.332-.674h-.438a5.055 5.055 0 0 0-2.34.674L9.867 94.232a5.132 5.132 0 0 0-2.56 4.445l.092 65.635c0 .912.474 1.762 1.277 2.21a2.46 2.46 0 0 0 2.54 0l25.173-14.415c1.592-.945 2.56-2.614 2.56-4.438v-30.666c0-1.828.97-3.52 2.555-4.428l10.718-6.173c.8-.46 1.673-.687 2.565-.687.872 0 1.768.226 2.544.687l10.714 6.173a5.1 5.1 0 0 1 2.558 4.428v30.665c0 1.823.982 3.502 2.564 4.437L98.33 166.52c.79.472 1.776.472 2.56 0a2.556 2.556 0 0 0 1.27-2.208l.083-65.635zM306.04 8.45a2.564 2.564 0 0 0-2.543.03 2.56 2.56 0 0 0-1.262 2.205v65c0 .64-.342 1.23-.894 1.55-.553.32-1.236.32-1.79 0l-10.61-6.11a5.118 5.118 0 0 0-5.11 0L241.456 95.58a5.115 5.115 0 0 0-2.56 4.43v48.915a5.12 5.12 0 0 0 2.56 4.432l42.37 24.47a5.12 5.12 0 0 0 5.117 0l42.376-24.47a5.12 5.12 0 0 0 2.558-4.432V26.99a5.117 5.117 0 0 0-2.624-4.47L306.04 8.45zm-3.93 124.403c0 .456-.245.88-.64 1.106l-14.55 8.385a1.282 1.282 0 0 1-1.276 0l-14.548-8.386a1.276 1.276 0 0 1-.64-1.107v-16.8c0-.455.244-.878.64-1.107l14.547-8.403c.396-.23.884-.23 1.28 0l14.548 8.403c.396.23.64.652.64 1.108v16.8zM447.13 115.615a5.116 5.116 0 0 0 2.547-4.424V99.338c0-1.823-.97-3.51-2.548-4.425l-42.1-24.443a5.117 5.117 0 0 0-5.127-.008l-42.356 24.453a5.115 5.115 0 0 0-2.558 4.43v48.903c0 1.84.986 3.536 2.583 4.445l42.093 23.985a5.112 5.112 0 0 0 5.017.028l25.46-14.15a2.558 2.558 0 0 0 .03-4.455l-42.624-24.466a2.558 2.558 0 0 1-1.286-2.22V116.09c0-.915.487-1.76 1.28-2.217l13.266-7.648a2.555 2.555 0 0 1 2.554 0l13.273 7.648a2.556 2.556 0 0 1 1.28 2.216v12.057a2.56 2.56 0 0 0 3.843 2.213l25.37-14.745z" fill="#333"/><path d="M401.842 113.324a.98.98 0 0 1 .982 0l8.13 4.69c.304.176.49.5.49.85v9.39a.982.982 0 0 1-.49.85l-8.13 4.69a.98.98 0 0 1-.982 0l-8.124-4.69a.982.982 0 0 1-.49-.85v-9.39c0-.35.186-.674.49-.85l8.124-4.69z" fill="#699F63"/><g><linearGradient gradientTransform="matrix(1 0 0 -1 0 288.11)" gradientUnits="userSpaceOnUse" id="a" x1="187.702" x2="149.637" y1="199.285" y2="121.633"><stop offset="0" stop-color="#41873f"/><stop offset=".329" stop-color="#418b3d"/><stop offset=".635" stop-color="#419637"/><stop offset=".932" stop-color="#3fa92d"/><stop offset="1" stop-color="#3fae2a"/></linearGradient><path d="M173.12 70.717a5.086 5.086 0 0 0-5.087 0L125.9 95.03a5.086 5.086 0 0 0-2.547 4.41v48.665c0 1.818.97 3.497 2.544 4.408l42.134 24.334c1.576.91 3.516.91 5.092 0l42.124-24.334a5.09 5.09 0 0 0 2.543-4.408V99.437c0-1.818-.97-3.497-2.546-4.406L173.12 70.718z" fill="url(#a)"/><defs><path d="M173.12 70.717a5.086 5.086 0 0 0-5.087 0L125.9 95.03a5.086 5.086 0 0 0-2.547 4.41v48.665c0 1.818.97 3.497 2.544 4.408l42.134 24.334c1.576.91 3.516.91 5.092 0l42.124-24.334a5.09 5.09 0 0 0 2.543-4.408V99.437c0-1.818-.97-3.497-2.546-4.406L173.12 70.718z" id="b"/></defs><clipPath id="c"><use overflow="visible" xlink:href="#b"/></clipPath><g clip-path="url(#c)"><path d="M167.944 70.717L125.722 95.03c-1.576.91-2.722 2.59-2.722 4.41v48.665c0 1.203.514 2.34 1.313 3.238l47.44-81.152a5.17 5.17 0 0 0-3.81.527zM171.988 177.34c.41-.114.81-.276 1.186-.493l42.177-24.334c1.575-.91 2.65-2.59 2.65-4.408V99.437c0-1.338-.598-2.598-1.54-3.534l-44.472 81.436z" fill="none"/><linearGradient gradientTransform="matrix(1 0 0 -1 0 288.11)" gradientUnits="userSpaceOnUse" id="d" x1="164.157" x2="270.965" y1="158.647" y2="237.562"><stop offset=".138" stop-color="#41873f"/><stop offset=".403" stop-color="#54a044"/><stop offset=".714" stop-color="#66b848"/><stop offset=".908" stop-color="#6cc04a"/></linearGradient><path d="M215.327 95.03l-42.252-24.313a5.044 5.044 0 0 0-1.322-.526l-47.44 81.153c.41.46.888.86 1.42 1.17l42.323 24.333c1.2.692 2.624.854 3.93.492l44.474-81.436a5.6 5.6 0 0 0-1.133-.87z" fill="url(#d)"/></g><g><defs><path d="M173.12 70.717a5.086 5.086 0 0 0-5.087 0L125.9 95.03a5.086 5.086 0 0 0-2.547 4.41v48.665c0 1.818.97 3.497 2.544 4.408l42.134 24.334c1.576.91 3.516.91 5.092 0l42.124-24.334a5.09 5.09 0 0 0 2.543-4.408V99.437c0-1.818-.97-3.497-2.546-4.406L173.12 70.718z" id="e"/></defs><clipPath id="f"><use overflow="visible" xlink:href="#e"/></clipPath><g clip-path="url(#f)"><path d="M218 148.105V99.437c0-1.818-1.098-3.497-2.673-4.406l-42.252-24.313a5.08 5.08 0 0 0-1.55-.57l46.316 79.127c.1-.38.16-.77.16-1.17zM125.722 95.03c-1.576.91-2.722 2.59-2.722 4.41v48.665c0 1.818 1.16 3.497 2.733 4.408l42.323 24.334a5.13 5.13 0 0 0 3.256.632l-45.337-82.595-.253.146z" fill="none"/><linearGradient gradientTransform="matrix(1 0 0 -1 0 288.11)" gradientUnits="userSpaceOnUse" id="g" x1="121.862" x2="219.279" y1="226.166" y2="226.166"><stop offset=".092" stop-color="#6cc04a"/><stop offset=".286" stop-color="#66b848"/><stop offset=".597" stop-color="#54a044"/><stop offset=".862" stop-color="#41873f"/></linearGradient><path fill="url(#g)" d="M166.627 61.78l-.58.33h.774z"/><linearGradient gradientTransform="matrix(1 0 0 -1 0 288.11)" gradientUnits="userSpaceOnUse" id="h" x1="121.862" x2="219.279" y1="164.348" y2="164.348"><stop offset=".092" stop-color="#6cc04a"/><stop offset=".286" stop-color="#66b848"/><stop offset=".597" stop-color="#54a044"/><stop offset=".862" stop-color="#41873f"/></linearGradient><path d="M215.35 152.513c1.23-.71 2.145-1.89 2.492-3.238l-46.317-79.128a5.157 5.157 0 0 0-3.58.57l-41.97 24.17 45.338 82.593a5.107 5.107 0 0 0 1.86-.632l42.178-24.335z" fill="url(#h)"/><linearGradient gradientTransform="matrix(1 0 0 -1 0 288.11)" gradientUnits="userSpaceOnUse" id="i" x1="121.862" x2="219.279" y1="136.537" y2="136.537"><stop offset=".092" stop-color="#6cc04a"/><stop offset=".286" stop-color="#66b848"/><stop offset=".597" stop-color="#54a044"/><stop offset=".862" stop-color="#41873f"/></linearGradient><path fill="url(#i)" d="M219.28 151.73l-.28-.477v.64z"/><linearGradient gradientTransform="matrix(1 0 0 -1 0 288.11)" gradientUnits="userSpaceOnUse" id="j" x1="121.862" x2="219.279" y1="123.968" y2="123.968"><stop offset=".092" stop-color="#6cc04a"/><stop offset=".286" stop-color="#66b848"/><stop offset=".597" stop-color="#54a044"/><stop offset=".862" stop-color="#41873f"/></linearGradient><path d="M215.35 152.513l-42.176 24.334a5.09 5.09 0 0 1-1.86.632l.84 1.53L219 151.89v-.64l-1.158-1.977c-.347 1.347-1.263 2.527-2.49 3.238z" fill="url(#j)"/><linearGradient gradientTransform="matrix(1 0 0 -1 0 288.11)" gradientUnits="userSpaceOnUse" id="k" x1="233.472" x2="173.391" y1="201.588" y2="79.023"><stop offset="0" stop-color="#41873f"/><stop offset=".329" stop-color="#418b3d"/><stop offset=".635" stop-color="#419637"/><stop offset=".932" stop-color="#3fa92d"/><stop offset="1" stop-color="#3fae2a"/></linearGradient><path d="M215.35 152.513l-42.176 24.334a5.09 5.09 0 0 1-1.86.632l.84 1.53L219 151.89v-.64l-1.158-1.977c-.347 1.347-1.263 2.527-2.49 3.238z" fill="url(#k)"/></g></g></g>
</svg>