<?xml version="1.0" encoding="utf-8"?>
<!-- Generator: Adobe Illustrator 21.0.2, SVG Export Plug-In . SVG Version: 6.00 Build 0)  -->
<svg version="1.1" id="OBJECTS" xmlns="http://www.w3.org/2000/svg" xmlns:xlink="http://www.w3.org/1999/xlink" x="0px" y="0px"
	 viewBox="0 0 591.1 537.1" style="enable-background:new 0 0 591.1 537.1;" xml:space="preserve">
<style type="text/css">
	.st0{fill:url(#SVGID_1_);}
	.st1{opacity:0.83;fill:url(#SVGID_2_);}
	.st2{fill:url(#SVGID_3_);}
	.st3{fill:url(#SVGID_4_);}
	.st4{opacity:0.71;fill:url(#SVGID_5_);}
	.st5{fill:url(#SVGID_6_);}
	.st6{fill:url(#SVGID_7_);}
	.st7{fill:url(#SVGID_8_);}
	.st8{fill:url(#SVGID_9_);}
	.st9{opacity:0.49;fill:url(#SVGID_10_);}
	.st10{fill:url(#SVGID_11_);}
	.st11{fill:url(#SVGID_12_);}
	.st12{fill:url(#SVGID_13_);}
	.st13{fill:url(#SVGID_14_);}
	.st14{fill:url(#SVGID_15_);}
	.st15{fill:url(#SVGID_16_);}
	.st16{opacity:0.28;fill:#FF7043;}
	.st17{fill:url(#SVGID_17_);}
	.st18{fill:url(#SVGID_18_);}
	.st19{opacity:0.51;fill:url(#SVGID_19_);}
	.st20{fill:#6A3600;}
	.st21{fill:url(#SVGID_20_);}
	.st22{opacity:0.51;fill:url(#SVGID_21_);}
	.st23{fill:#A15B2D;}
</style>
<g>
	<linearGradient id="SVGID_1_" gradientUnits="userSpaceOnUse" x1="294.9052" y1="32.9411" x2="294.9052" y2="512.9421">
		<stop  offset="0" style="stop-color:#B2EBF2"/>
		<stop  offset="1" style="stop-color:#FFE082"/>
	</linearGradient>
	<circle class="st0" cx="294.9" cy="270.9" r="248"/>
	<radialGradient id="SVGID_2_" cx="85.9052" cy="-4.0586" r="588.4822" gradientUnits="userSpaceOnUse">
		<stop  offset="0.2367" style="stop-color:#4DD0E1;stop-opacity:0"/>
		<stop  offset="0.3059" style="stop-color:#54D1DD;stop-opacity:0.1127"/>
		<stop  offset="0.4089" style="stop-color:#69D3D1;stop-opacity:0.2807"/>
		<stop  offset="0.533" style="stop-color:#8AD7BE;stop-opacity:0.4831"/>
		<stop  offset="0.6737" style="stop-color:#B8DDA3;stop-opacity:0.7124"/>
		<stop  offset="0.8263" style="stop-color:#F2E482;stop-opacity:0.9612"/>
		<stop  offset="0.8501" style="stop-color:#FCE57C"/>
	</radialGradient>
	<circle class="st1" cx="294.9" cy="270.9" r="248"/>
	<linearGradient id="SVGID_3_" gradientUnits="userSpaceOnUse" x1="132.28" y1="420.6772" x2="132.28" y2="316.4544">
		<stop  offset="0" style="stop-color:#F89640"/>
		<stop  offset="0.3446" style="stop-color:#FAA855"/>
		<stop  offset="0.7129" style="stop-color:#FBB665"/>
		<stop  offset="1" style="stop-color:#FCBB6B"/>
	</linearGradient>
	<polygon class="st2" points="132.3,313 40,422.9 224.6,422.9 	"/>
	<linearGradient id="SVGID_4_" gradientUnits="userSpaceOnUse" x1="86.1342" y1="420.6772" x2="86.1342" y2="316.4544">
		<stop  offset="0" style="stop-color:#BD6A2D"/>
		<stop  offset="0.3042" style="stop-color:#C27B39"/>
		<stop  offset="0.6953" style="stop-color:#C68B44"/>
		<stop  offset="1" style="stop-color:#C89148"/>
	</linearGradient>
	<polygon class="st3" points="40,422.9 132.3,313 72.4,422.9 	"/>
	<linearGradient id="SVGID_5_" gradientUnits="userSpaceOnUse" x1="149.9704" y1="388.5553" x2="157.4861" y2="393.4779">
		<stop  offset="0.125" style="stop-color:#FFFFFF;stop-opacity:0"/>
		<stop  offset="0.1489" style="stop-color:#FAF8F6;stop-opacity:2.731740e-02"/>
		<stop  offset="0.3937" style="stop-color:#CCB5A0;stop-opacity:0.3071"/>
		<stop  offset="0.6097" style="stop-color:#A67F5B;stop-opacity:0.5539"/>
		<stop  offset="0.7886" style="stop-color:#8C592A;stop-opacity:0.7584"/>
		<stop  offset="0.924" style="stop-color:#7B410B;stop-opacity:0.9131"/>
		<stop  offset="1" style="stop-color:#753800"/>
	</linearGradient>
	<polygon class="st4" points="175.5,364.5 170.9,359 128,417.4 145.1,412.1 	"/>
	<g>
		<linearGradient id="SVGID_6_" gradientUnits="userSpaceOnUse" x1="291.6558" y1="417.9984" x2="291.6558" y2="190.4602">
			<stop  offset="0" style="stop-color:#F89640"/>
			<stop  offset="0.3446" style="stop-color:#FAA855"/>
			<stop  offset="0.7129" style="stop-color:#FBB665"/>
			<stop  offset="1" style="stop-color:#FCBB6B"/>
		</linearGradient>
		<polygon class="st5" points="291.7,182.9 138.1,422.9 445.2,422.9 		"/>
		<linearGradient id="SVGID_7_" gradientUnits="userSpaceOnUse" x1="214.8927" y1="417.9984" x2="214.8927" y2="190.4602">
			<stop  offset="0" style="stop-color:#BD6A2D"/>
			<stop  offset="0.3042" style="stop-color:#C27B39"/>
			<stop  offset="0.6953" style="stop-color:#C68B44"/>
			<stop  offset="1" style="stop-color:#C89148"/>
		</linearGradient>
		<polygon class="st6" points="138.1,422.9 291.7,182.9 221.1,422.9 		"/>
		<linearGradient id="SVGID_8_" gradientUnits="userSpaceOnUse" x1="296.7555" y1="188.1331" x2="265.6384" y2="238.1245">
			<stop  offset="0" style="stop-color:#FBCC83"/>
			<stop  offset="0.5105" style="stop-color:#FCC277"/>
			<stop  offset="1" style="stop-color:#FCBD71"/>
		</linearGradient>
		<path class="st7" d="M256.7,237.5L256.7,237.5c0,0,1.8,1.7,6.1-1.3c4.3-3,0.6,3.6,3.9,3.8s5.2-3.5,9.2-3.6l15.7-53.6L256.7,237.5z
			"/>
		<linearGradient id="SVGID_9_" gradientUnits="userSpaceOnUse" x1="298.4904" y1="185.5308" x2="301.376" y2="240.7697">
			<stop  offset="0" style="stop-color:#FFF2A5"/>
			<stop  offset="0.4933" style="stop-color:#FFE7A2"/>
			<stop  offset="1" style="stop-color:#FFE1A1"/>
		</linearGradient>
		<path class="st8" d="M291.7,245.5c12.5-3.8,12.1-16.8,19.6-12.1c7.6,4.7,15.1,3.8,15.1,3.8l-34.8-54.4l-15.7,53.6l0,0
			C279.9,236.5,279.2,249.4,291.7,245.5z"/>
	</g>
	<linearGradient id="SVGID_10_" gradientUnits="userSpaceOnUse" x1="344.9305" y1="369.9119" x2="353.0556" y2="376.7388">
		<stop  offset="0.125" style="stop-color:#FFFFFF;stop-opacity:0"/>
		<stop  offset="0.1489" style="stop-color:#FAF8F6;stop-opacity:2.731740e-02"/>
		<stop  offset="0.3937" style="stop-color:#CCB5A0;stop-opacity:0.3071"/>
		<stop  offset="0.6097" style="stop-color:#A67F5B;stop-opacity:0.5539"/>
		<stop  offset="0.7886" style="stop-color:#8C592A;stop-opacity:0.7584"/>
		<stop  offset="0.924" style="stop-color:#7B410B;stop-opacity:0.9131"/>
		<stop  offset="1" style="stop-color:#753800"/>
	</linearGradient>
	<polygon class="st9" points="389.2,335.4 382.7,325.3 308.6,415.8 332.9,402.3 	"/>
	<g>
		<linearGradient id="SVGID_11_" gradientUnits="userSpaceOnUse" x1="432.7188" y1="420.0685" x2="432.7188" y2="287.8265">
			<stop  offset="0" style="stop-color:#F89640"/>
			<stop  offset="0.3446" style="stop-color:#FAA855"/>
			<stop  offset="0.7129" style="stop-color:#FBB665"/>
			<stop  offset="1" style="stop-color:#FCBB6B"/>
		</linearGradient>
		<polygon class="st10" points="432.7,283.5 315.6,422.9 549.8,422.9 		"/>
		<linearGradient id="SVGID_12_" gradientUnits="userSpaceOnUse" x1="374.1672" y1="420.0685" x2="374.1672" y2="287.8265">
			<stop  offset="0" style="stop-color:#BD6A2D"/>
			<stop  offset="0.3042" style="stop-color:#C27B39"/>
			<stop  offset="0.6953" style="stop-color:#C68B44"/>
			<stop  offset="1" style="stop-color:#C89148"/>
		</linearGradient>
		<polygon class="st11" points="315.6,422.9 432.7,283.5 348.8,422.9 		"/>
	</g>
	<linearGradient id="SVGID_13_" gradientUnits="userSpaceOnUse" x1="434.3845" y1="285.1735" x2="404.5384" y2="322.4042">
		<stop  offset="0" style="stop-color:#FBCC83"/>
		<stop  offset="0.5105" style="stop-color:#FCC277"/>
		<stop  offset="1" style="stop-color:#FCBD71"/>
	</linearGradient>
	<path class="st12" d="M401.1,321.1c0,0,2.7,1.5,4.5,0c1.8-1.5,2.2,0.1,4.4,0l0,0l22.6-37.6L401.1,321.1z"/>
	<linearGradient id="SVGID_14_" gradientUnits="userSpaceOnUse" x1="426.5857" y1="283.4826" x2="435.8164" y2="320.4057">
		<stop  offset="0" style="stop-color:#FFF2A5"/>
		<stop  offset="0.4933" style="stop-color:#FFE7A2"/>
		<stop  offset="1" style="stop-color:#FFE1A1"/>
	</linearGradient>
	<path class="st13" d="M456,320.5c1.9-1.3,3.5-2.4,4.9-3.5l-28.1-33.5l-22.6,37.6c2.2-0.1,7.9-5.7,19-4
		C440.1,318.8,445.7,327.4,456,320.5z"/>
	<linearGradient id="SVGID_15_" gradientUnits="userSpaceOnUse" x1="132.947" y1="312.1787" x2="113.947" y2="339.8454">
		<stop  offset="0" style="stop-color:#FBCC83"/>
		<stop  offset="0.5105" style="stop-color:#FCC277"/>
		<stop  offset="1" style="stop-color:#FCBD71"/>
	</linearGradient>
	<path class="st14" d="M109.5,340.2c0,0,2.4,0.9,3.9-0.7c1.5-1.7-0.1,3.4,2.3,4l16.6-30.5L109.5,340.2z"/>
	<linearGradient id="SVGID_16_" gradientUnits="userSpaceOnUse" x1="127.216" y1="312.0905" x2="134.5493" y2="337.7571">
		<stop  offset="0" style="stop-color:#FFF2A5"/>
		<stop  offset="0.4933" style="stop-color:#FFE7A2"/>
		<stop  offset="1" style="stop-color:#FFE1A1"/>
	</linearGradient>
	<path class="st15" d="M115.7,343.5c2.4,0.6,9.7-0.2,17.5-5.5c7.6-5.2,10.3,8.1,22.8,3.4L132.3,313L115.7,343.5L115.7,343.5z"/>
	<rect x="124.1" y="373.9" class="st16" width="7.9" height="1.9"/>
	<rect x="128" y="377.1" class="st16" width="7.9" height="1.9"/>
	<rect x="128" y="371.1" class="st16" width="7.9" height="1.9"/>
	
		<rect x="332" y="291.3" transform="matrix(-1 -1.224647e-16 1.224647e-16 -1 675.0809 585.1591)" class="st16" width="11.1" height="2.6"/>
	
		<rect x="326.4" y="295.7" transform="matrix(-1 -1.224647e-16 1.224647e-16 -1 663.9698 593.9389)" class="st16" width="11.1" height="2.6"/>
	
		<rect x="410.8" y="363.5" transform="matrix(-1 -1.224647e-16 1.224647e-16 -1 830.8405 729.2388)" class="st16" width="9.3" height="2.2"/>
	
		<rect x="444.3" y="352" transform="matrix(-1 -1.224647e-16 1.224647e-16 -1 897.9161 706.1355)" class="st16" width="9.3" height="2.2"/>
	
		<rect x="438.6" y="348.1" transform="matrix(-1 -1.224647e-16 1.224647e-16 -1 886.4916 698.3452)" class="st16" width="9.3" height="2.2"/>
	
		<rect x="438.6" y="356.1" transform="matrix(-1 -1.224647e-16 1.224647e-16 -1 886.4916 714.4504)" class="st16" width="9.3" height="2.2"/>
	
		<rect x="406.1" y="367.2" transform="matrix(-1 -1.224647e-16 1.224647e-16 -1 821.5665 736.567)" class="st16" width="9.3" height="2.2"/>
	
		<rect x="94.4" y="393.9" transform="matrix(-1 -1.224647e-16 1.224647e-16 -1 196.6996 789.7478)" class="st16" width="7.9" height="1.9"/>
	
		<rect x="98.3" y="397.2" transform="matrix(-1 -1.224647e-16 1.224647e-16 -1 204.6406 796.2478)" class="st16" width="7.9" height="1.9"/>
	
		<rect x="105.1" y="389.5" transform="matrix(-1 -1.224647e-16 1.224647e-16 -1 218.0604 780.8824)" class="st16" width="7.9" height="1.9"/>
	
		<rect x="314.3" y="351.9" transform="matrix(-1 -1.224647e-16 1.224647e-16 -1 639.6993 706.3979)" class="st16" width="11.1" height="2.6"/>
	
		<rect x="308.6" y="357.5" transform="matrix(-1 -1.224647e-16 1.224647e-16 -1 628.3937 717.7033)" class="st16" width="11.1" height="2.6"/>
	
		<rect x="303" y="363.2" transform="matrix(-1 -1.224647e-16 1.224647e-16 -1 617.0881 729.0089)" class="st16" width="11.1" height="2.6"/>
	
		<rect x="268" y="311.2" transform="matrix(-1 -1.224647e-16 1.224647e-16 -1 547.1993 624.9925)" class="st16" width="11.1" height="2.6"/>
	
		<rect x="275.9" y="315.6" transform="matrix(-1 -1.224647e-16 1.224647e-16 -1 562.8658 633.7723)" class="st16" width="11.1" height="2.6"/>
	<rect x="276" y="306.8" class="st16" width="11.1" height="2.6"/>
	<rect x="456.5" y="326.7" class="st16" width="9.3" height="2.2"/>
	<rect x="461.1" y="330.4" class="st16" width="9.3" height="2.2"/>
	
		<radialGradient id="SVGID_17_" cx="41.2013" cy="395.0625" r="40.8174" gradientTransform="matrix(0.1477 0.989 -3.1674 0.4731 1286.4313 167.4012)" gradientUnits="userSpaceOnUse">
		<stop  offset="0" style="stop-color:#F6CD5F"/>
		<stop  offset="0.8648" style="stop-color:#AB6C41"/>
	</radialGradient>
	<path class="st17" d="M82.1,408.7L82.1,408.7c-24.5-2.1-45.5-4.8-60.7-7c-7.5-1.1-11.8,8.4-5.9,13.3l0,0c5.9,4.9,11.9,9.7,18,14.3
		C34.1,428.8,52.2,417.7,82.1,408.7z"/>
	
		<radialGradient id="SVGID_18_" cx="440.4707" cy="348.9125" r="181.5082" gradientTransform="matrix(-0.2323 0.9727 -3.1149 -0.7438 1629.6215 180.0221)" gradientUnits="userSpaceOnUse">
		<stop  offset="0" style="stop-color:#F6CD5F"/>
		<stop  offset="0.8354" style="stop-color:#AB6C41"/>
	</radialGradient>
	<path class="st18" d="M571.3,413.9c-154.8-21.1-234.7-12.4-333.6-5c14.3,4.4,28.9,10.3,43.8,17.8C340,456.4,414,473,478.9,482.3
		c33.5-14.5,65.7-33.3,95.6-56.5l0,0C579.1,422.2,577.2,414.7,571.3,413.9z"/>
	<linearGradient id="SVGID_19_" gradientUnits="userSpaceOnUse" x1="376.7594" y1="417.9412" x2="376.7594" y2="401.7325">
		<stop  offset="0" style="stop-color:#FFFFFF;stop-opacity:0"/>
		<stop  offset="0.7986" style="stop-color:#401100"/>
	</linearGradient>
	<path class="st19" d="M369.5,413c0,0-3.5-2.3,2.7-1.7c0,0,0.4-0.3,0.3-0.6c-0.1-0.2-0.7-0.3-0.5-0.4c0,0-2.6-0.8-3.9-1
		c-1.3-0.2-2.6-0.9-2.5-1.1c0.2-0.2-1.1-1.1-1.6-1.3c-0.5-0.2-0.8-0.3-0.9-0.5c-0.1-0.2-1.8-0.7-1.9-0.9c-0.1-0.2,1.6,0,1.6,0
		s1.3,0.3,1.6,0.5c0.3,0.2-0.4,0.1,0,0.4c0.4,0.2,0.5,0.1,0.7,0.5c0.2,0.4,1.5,1.3,2.5,1.6c1,0.3,3.6,1,3.7,1c0.1,0-2.5-1.6-2.6-1.8
		c-0.1-0.2-1.7-1.2-2.6-1.5c-0.9-0.3-1.2-0.4-1.3-0.5c-0.1-0.1-1.7-0.3-1.9-0.4c-0.2-0.1,1.5-0.3,2.2-0.1c0.7,0.2,0.4,0.2,0.7,0.4
		c0.4,0.2,0.6,0.1,0.9,0.3c0.3,0.2,2.8,1.7,3.4,2s0.8,0.3,1.3,0.7c0.5,0.4,2,1.4,2.9,1.5c1,0.2,0.8,0.1,1.3,0.2
		c0.6,0.1,4.3,0.1,7.6,0.7c0,0,0.5,0-0.5-0.5c-1.1-0.5-1.3-0.7-2-1.1s-2.9-1.3-3.7-1.5c-0.8-0.2-2.9-1.3-4.7-1.7
		c-1.7-0.4-1.9-0.4-2.2-0.6c-0.3-0.2-0.8,0-1.7-0.3c-0.9-0.3,1.7-0.1,1.7-0.1s0-0.1,0.8,0.3c0,0,0.3,0,1.5,0.5
		c1.2,0.5,5.7,1.8,6.4,1.9s1,0.4,2,0.9c1,0.4,2.8,1.1,2.8,1.1s-0.2-0.3,0.2-0.3c0.4,0-0.6-0.7-0.6-1.1c0-0.5-3.3-2.4-4.5-2.7
		c-1.2-0.3-2.1-0.4-2.2-0.6c-0.1-0.1,1.6-0.3,2.2,0c0.6,0.3,0.6,0.3,1,0.5c0.4,0.2,1.3,0.5,1.5,0.8s3.9,2,4.7,2.3
		c0.7,0.3-0.9,0.4,0.7,1.3c0,0,2.3,1.5,4.1,2.2c1.8,0.7,1.9,2,1.2,2c-0.7,0.1-2.5,0.2-1.8,0.7s-1.1,0.6-2.1,0.4
		c-0.9-0.2-2.8-0.7-3.4-0.7c-0.6,0-3.1-0.2-5.2-0.7c-2.1-0.5-5-1.4-6.2-1.3c-1.2,0.1,1,1.5,1,1.5s1.1,0.6,1.7,0.7
		c0,0-0.7-0.1-0.8-0.1c-0.1,0-0.7,0-0.6,0.1c0.1,0.1,0.4,0.1,0.4,0.1c0,0-0.5,0.1-1.1-0.1c0,0-0.9-0.1-1.3-0.2
		c-0.4-0.1-2.1,0-2.8-0.2c-0.7-0.2-0.8,0-1.5-0.3c-0.7-0.3-1-0.5-0.5-0.5c0.5,0,1.8,0,1.9-0.3S369.5,413,369.5,413z"/>
	<path class="st20" d="M352.9,389.1c0,0,1.2,5.3,6.2,3.9c0,0,1.1,0.8,1.5,1.3c0.4,0.5-0.1,0.7,0.2,0.8c0,0-1,1.8-1.8,2.4
		c-0.8,0.6-0.8,2-0.2,2.6c0.7,0.5,1.2,2.5,1.1,2.9c-0.2,0.4-0.1,0.8,0.2,1.2c0.3,0.4-0.4,1.6-0.1,2c0.3,0.4,1.6,0,1.6,0
		s0.8-0.6,0.6-1.2c-0.2-0.6-0.7-0.3-0.8-0.9c-0.2-0.6,0.3-0.2-0.3-1.1c-0.7-0.9-1.1-2.9-0.9-3.7c0.3-0.8,1.5-2.3,1.6-2.4
		c0.1,0,0.9,3.7,1.2,4.2c0.3,0.5,0.9,2.9,0.6,3.5c-0.3,0.7-0.3,1-0.2,1.2c0.1,0.2-1.2,0.6-1.1,0.9c0.1,0.3,2.2,0.7,2.4,0.3
		c0.3-0.4-0.1-0.5-0.2-1c-0.1-0.6,0.5-0.1,0.3-0.7c-0.2-0.6-0.7-3.9-0.7-4.6s0.2-0.7-0.3-1.7c-0.4-1-0.9-3.2-0.3-3.6
		c0.6-0.4,0.6-0.2,0.9-0.5c0.3-0.3,4.1-0.2,6.2-1.6c0,0,0.5-0.1,0.5,1.2c0,1.2,0.1,1.6,0.3,2.5c0.1,0.8-0.1,3.1-0.6,3.5
		c-0.4,0.4-0.1,3.1-1.1,4c-1,0.9-1,1-1,1.3c0.1,0.4-0.7,0-1,0.8c-0.3,0.7,1.9,0.2,1.9,0.2s0.2,0.2,0.3-0.6c0,0,0.3,0,0.4-1.2
		c0.2-1.2,2-4.1,2.4-4.3c0.4-0.2,0-1,0.2-2c0.1-1,0.4-2.6,0.4-2.6s0.5,0.7,0.9,0.8c0.4,0.1,0.8,1.6,1.8,2.6c1,1.1,1.8,5.6,1.3,6.4
		c-0.5,0.8-1.3,1-1.1,1.3c0.2,0.3,2.1,0.6,2.2,0c0.1-0.6,0-0.7,0-1.1c0-0.4,0.2-1.3-0.2-1.9s-0.3-4.7-0.2-5.4
		c0.2-0.6-1.7-0.8-1.9-2.9c0,0-0.8-3.5-0.5-5c0.4-1.6-2.2-4.6-3.1-4.7c-0.9-0.1-3-0.5-3.4-1.7c-0.4-1.2-2.4-1.4-3-1
		c-0.6,0.4-1.4,1.6-2,1.5c-0.6,0-2.7,0.4-3.8,1.6c-1.1,1.2-2.1,3.2-3.5,2.9c-1.5-0.3-2.2-3.5-2.2-3.5s-0.2-1.5,0.1-1.7
		c0,0-0.4,0.3-0.6,0.2c-0.2-0.1-0.8,0-0.8-0.2s0.2-0.2,0.2-0.2c0,0-0.7-0.2-0.9,0.2c0,0-0.7,0.2-0.9,0.5c-0.2,0.3-2.1,0-2.3,0.6
		c-0.2,0.6-0.9,0-0.8,0.7c0.1,0.8,0,1.1,0.5,1.1c0.5,0,1.7-0.1,2.5,0.7C352.6,388.4,352.9,389.1,352.9,389.1z"/>
	
		<radialGradient id="SVGID_20_" cx="207.2387" cy="352.6078" r="156.6454" gradientTransform="matrix(-0.1781 0.984 -2.8889 -0.523 1262.7917 333.0962)" gradientUnits="userSpaceOnUse">
		<stop  offset="0.4862" style="stop-color:#DAC27D"/>
		<stop  offset="0.5932" style="stop-color:#DABC73"/>
		<stop  offset="0.7412" style="stop-color:#D9AE5E"/>
	</radialGradient>
	<path class="st21" d="M478.9,482.3c-56.5,24.5-116.9,36.7-177.2,36.7c-94.6,0-189.1-30-268.3-89.7c0.5-0.3,18.6-11.5,48.7-20.5
		c37.2-11.2,92.7-19.3,155.6,0.2c14.3,4.4,28.9,10.3,43.8,17.8C340,456.5,414,473,478.9,482.3z"/>
	
		<linearGradient id="SVGID_21_" gradientUnits="userSpaceOnUse" x1="669.3547" y1="451.3548" x2="669.3547" y2="396.5241" gradientTransform="matrix(-1 0 0 1 800.2499 0)">
		<stop  offset="0" style="stop-color:#FFFFFF;stop-opacity:0"/>
		<stop  offset="0.7986" style="stop-color:#401100"/>
	</linearGradient>
	<path class="st22" d="M111.4,427.9c0,0,18.2-3.2,27.8-2c0,0,4.7-0.5,5.5-0.3c0,0,8-4.9,10.4-6.3c2.4-1.4,5.3-2.6,6.2-3.1
		c0.8-0.5,9-4.4,9.3-4.9c0.3-0.5,2.7-0.7,2.9-1.2c0.2-0.4,0.2-0.9,2-1.2s5.5-0.7,5.7,0c0,0,0.4,0.4-2.1,0.8s-2.8,0.2-3.5,0.6
		c0,0,1.8-0.1,2.6,0.1c0.9,0.2,2.5,0,1.9,0.3c-0.6,0.3-2.1,0.7-3,0.7c0,0-1.8-0.2-3.5,0.4c-1.6,0.7-9,4-9.4,4.4
		c-0.4,0.4-0.9,1.5-2.7,2.3c-1.8,0.8-8.2,6.6-10,7.7c0,0,3.1,1,2.4,1.6c0,0,14.4-0.6,14.4,2.3c0,2.9-3.3,4.4-3.3,4.4
		s3.1-0.4,4.2-1.2c0,0,0.9,0.2-0.1,0.6l1.2-0.2c0,0-0.8,0.6-2.9,1.2c-2.1,0.6-0.7,0.7-3,1.4c-2.2,0.7-3,1.6-0.7,1
		c0,0-0.9,0.6,0.2,0.7c1.1,0.1,3.9,0.7,4.4,1c0.5,0.3,3.3-0.4,4.2-0.1c0.9,0.2,0.9,0.2-0.6,0.5c-1.5,0.4,0.7,0-0.5,0.5
		c-1.2,0.5-2.9,0.8-3.7,1c-0.8,0.2-2.3,0.9-3.8,0.9c-1.5,0-5.1,0.1-5.9-0.1c-0.8-0.2-2.1,0.2-4,0.3c-1.9,0.1-1.8,0.3-5.1,0.3
		c0,0-2,0.6-2.8,0.5c-0.8-0.1,1.1-0.6,0.9-0.9c-0.2-0.2,1.7-1.2,1.2-1.3c-0.5-0.1,0.6-0.5,0.5-1c-0.1-0.5,1.1-2,2.2-2.5
		c0,0-1,1,0.3,0.5c1.3-0.5,6.2-4.1,0-4.1s-21.3,4.9-30.1,5.4c-8.9,0.5-14.5,1.9-20.6,3.5c-6.1,1.5-10.4,1.1-12.5,0.3
		c-2.1-0.8-0.9-4.5-4.1-4.6c-3.2-0.1-3.5-3.8-2.2-4.8c1.3-1,4.7-2.7,6.6-3.5c0,0,2.1-1.5,3.9-2.1c1.8-0.5,3.4-1.4,2.6-1.8
		c-0.7-0.4,8.4-3.4,8.4-3.4s-4.7,2.1-3.8,1.9c0.9-0.1,6-2.8,7.3-3c0,0-2.9,1.3-2.1,1.2c0.8,0,3.8-1.4,3.8-1.4s-1.6,0.9-4.1,1.9
		c-2.6,1,0.1,0.3-1.2,1c0,0,7.3-2.7,9.5-4.1c2.2-1.3,4.4-3.1,7.2-3.8c2.8-0.6,18.2-5.9,19.5-6.4c1.3-0.5,2.9-1.3,4-1.3
		c0,0,1-0.5,2.6-0.7c1.6-0.1,3.8-0.3,4.9-0.4c1.1-0.1,2.8-0.1,1.3,0.5c-1.5,0.6-4,0.5-6.3,1.1c-2.3,0.6-6.5,1.3-16,5.1
		c0,0,10.3-3.5,11.8-3.7c1.5-0.3,0.9-0.6,3.1-0.7s2.4,0.1,3.7,0s2.8-0.1,0.6,0.5c-2.2,0.5-3,0.2-6.1,0.9c-3.1,0.7-14.7,4.4-17.8,6
		c-3.1,1.6-7.1,3.4-9.5,4.8c0,0-1.5,2.2-2.7,2.9C111.4,426.1,114.9,426.1,111.4,427.9z"/>
	<path class="st23" d="M153.1,369.5c0,0,11.6,7.4,23.7,4.6c0,0,3.6,1.2,4.9,0.6c0,0-2.4,11.5-2.8,14.6c-0.4,3.2,0,5.9-0.3,7.1
		c-0.3,1.2-0.2,10.3-1,11.4s1.1,1.7,0.5,2.7c-0.6,1-1.7,2.1-0.6,2.8c1.1,0.7,4.1,1.5,5.7,0c0,0,1.3-1-0.4-1.8
		c-1.7-0.8-2.3-0.5-2.3-1.3c0,0,1.6,0.2,2.8-0.2c1.2-0.4,2.5,0,2.5-0.7c0-0.7-0.6-1.7-1.5-1.7c0,0-2.3,0.5-2.5-1
		c-0.3-1.5-0.6-9.4-0.2-10.2c0.4-0.8,2.2-3.4,2.1-5.3c-0.1-1.9,5.7-15.4,6-17.8c0,0,5.2-2.3,5.8-3.8c0,0,13.2,1.3,19.2-5.3
		c6-6.6,6-10.3,6-10.3s2.2,1,1.6,2.9c0,0,1.3-0.5,1.2-1.5l0.9,0.4c0,0,0.5-1.5-0.4-2.8c-0.9-1.3,0.7-1.6,0-3.3
		c-0.7-1.7,0.3-3.6,1.5-2.4c0,0,0.3-1.4,1.6-1.6c1.3-0.2,5.3-1.6,6.5-2.4c1.2-0.8,2.5,0.8,3.9,0.3c1.3-0.5,1.2-0.4,0.4-1.2
		c-0.8-0.8,0.8-0.1,0.6-1.2c-0.2-1.1-1.3-1.8-1.7-2.3c-0.4-0.4-0.4-2.1-1.9-2.1s-5-0.2-6.1,0.2c-1.1,0.4-1.7-0.4-3.4-0.6
		c-1.8-0.2-1.1-0.8-4.5-0.7c0,0-0.8-1.3-1.8-1.2c-1,0.2-0.2,1.4-0.9,2c-0.7,0.6-0.7,2.7-1.5,3c-0.8,0.3-0.5,1.2-1.6,2.4
		c-1.1,1.1-3,4.6-3,5.7c0,0,1-2.2,1.4-1.2c0.4,1.1-2.3,9.5-8.6,9.5s-11-11.4-18.8-12.6c-7.8-1.2-10.4-4.5-13.4-8
		c-2.9-3.6-8-2.6-11.8-0.7c-3.8,1.9-10.4,10.5-13.8,10.7c-3.4,0.2-11.4,8.8-12.2,11.1c-0.8,2.3-1,6.3-0.7,8.1c0,0-1,3.5-0.4,4.8
		c0.6,1.3,0.4,3.3-1.2,4.3c-1.6,1,1.2,8,1.2,8s-0.4-4.8,0.3-4.5c0.6,0.3,0.1,6.5,1.1,6.9c0,0-0.3-2.9,0.5-2.9
		c0.8,0.1,0.8,3.3,0.8,3.3s0.3-2.1-0.1-4.5c-0.4-2.4,0.8-0.7,1-2.4c0,0,1.7,6.3,1,9.4s-2.2,7.3-0.7,8.7c1.5,1.5,5.9,13.6,6.2,14.8
		c0.3,1.2,0.3,2.9,1.2,3.1c0,0-0.1,1.2,1.2,1.5c1.3,0.3,3.2,0.6,4.1,0.8c0.9,0.2,2.5,0.3,2.4-1.1c-0.2-1.5-2.9-1.2-3.9-2.6
		c-1-1.4-3.8-3.1-5.3-11.8c0,0,3.1,8,4,8.7c1,0.6-0.4,1.5,1.5,1.7c1.9,0.3,2.6-0.3,3.7,0c1.1,0.3,2.7,0.1,1.7-1.1
		c-1-1.3-2.6-0.4-4.2-2.1c-1.6-1.7-5.4-10.3-5.2-14c0.2-3.7,0-7.9,0.5-11.1c0,0,3.1-5.1,3.3-6.7
		C149.2,373.8,152.8,373.7,153.1,369.5z"/>
</g>
</svg>
