<svg id="web-components" 
    width="2500" height="1670" viewBox="0 0 256 171" 
    xmlns="http://www.w3.org/2000/svg" preserveAspectRatio="xMinYMin meet">
    <path d="M87.33 169.9L38.606 36.6 172.407.81l24.34 139.813-50.73 29.83-58.688-.552" fill="#E44D26"/><path d="M142.99 158.83l40.987-24.115-20.804-119.48-54.683 14.63 34.5 128.966" fill="#F16529"/><path d="M236.043 69.772l6.234 21.45-47.728 13.485s0 28.707-23.163 40.12c-23.16 11.41-41.15 1.734-41.15 1.734l-2.882-8.3 34.356-9.34 7.605-29.404-22.134-21.77-31.816 9.622-2.763-7.552s14.867-32.856 58.793-14.17c0 0 13.842 8.638 16.946 16.255l47.703-12.128zm6.234-1.61l7.605-2.192L256 87.875l-7.96 2.414-5.763-22.13z" fill="#EFEFEF"/><path d="M244.956 67.194l4.926-1.224L256 87.875l-7.96 2.414-2.084-7.336 3.176-1.243-4.176-14.516zm-14.176 3.92l5.263-1.342 6.234 21.45-47.728 13.485s-.515 25.048-17.125 36.39c-16.582 11.332-35.27 10.99-47.195 5.465l-1.33-3.828s32.455 7.63 48.525-16.754c9.69-16.077 9.52-27.667 9.52-27.667l47.893-12.965-4.058-14.234zm-118.185 8.69l28.014-8.13 6.56 6.057-31.812 9.624-2.763-7.55z" fill="#BCBCBC"/><path d="M13.834 95.006l5.624 21.614 47.894-12.828s14.696 24.654 40.44 22.6c25.754-2.05 36.245-19.568 36.245-19.568l-1.775-8.603-34.29 9.558L86.387 86.42l7.873-30.048 32.267-8.012-1.494-7.906S95.453 19.832 67.267 58.36c0 0-7.46 14.497-6.243 22.628l-47.19 14.018zm-6.177 1.81L0 98.82l5.954 21.944 8.077-1.993-6.373-21.955z" fill="#EFEFEF"/><path d="M4.862 97.346L0 98.82l5.954 21.944 8.077-1.993-1.953-7.374-3.38.56-3.835-14.61zm14.195-3.88l-5.223 1.54 5.624 21.614 47.894-12.828S80.62 125.04 100.69 126.29c20.05 1.236 35.92-8.605 43.347-19.466l-.81-3.966s-23.988 23.168-50.28 10.44c-16.55-8.854-22.326-18.913-22.326-18.913l-47.787 13.38-3.776-14.3zM125.033 40.46l-28.22 7.342-2.545 8.57 32.265-8.01-1.5-7.9z" fill="#BCBCBC"/>
</svg>